<?xml version="1.0" encoding="utf-8"?>
<!-- Generator: Adobe Illustrator 18.1.1, SVG Export Plug-In . SVG Version: 6.00 Build 0)  -->
<svg version="1.1" id="Layer_1" xmlns="http://www.w3.org/2000/svg" xmlns:xlink="http://www.w3.org/1999/xlink" x="0px" y="0px"
	 viewBox="6312 0 3000 3000" enable-background="new 6312 0 3000 3000" xml:space="preserve">
<path fill="#747474" d="M7684.4,1278.6"/>
<polygon fill="#747474" points="6662.1,2580 6662.1,943.3 7823.3,424.7 8984.6,958.5 8984.7,2580 8724,2580 8724,1173 6892,1173 
	6892,2580 "/>
<g>
	<path fill="none" stroke="#747474" stroke-width="115.0761" stroke-miterlimit="10" d="M7503,2247.9c28.2,23.5,46.2,58.8,46.2,98.4
		c0,70.6-57.3,127.9-127.9,127.9s-127.9-57.3-127.9-127.9c0-39.7,18-75.1,46.3-98.6"/>
	<path fill="none" stroke="#747474" stroke-width="115.0761" stroke-miterlimit="10" d="M8294.5,2274.8c13.8,20.4,21.8,45,21.8,71.5
		c0,70.6-57.3,127.9-127.9,127.9c-70.6,0-127.9-57.3-127.9-127.9c0-22.3,5.7-43.3,15.7-61.6"/>
	<path fill="none" stroke="#747474" stroke-width="115.0761" stroke-miterlimit="10" d="M7256.7,1839.1
		c-9.7-19.5-12.6-41.7-6.6-64.2l69.2-258.6c13.7-51.2,70.3-87.8,135.7-87.8H8169c65.4,0,122,36.6,135.7,87.8l69.2,258.6
		c4.6,17.3,4,34.3-1,50.1"/>
	<g>
		<g>
			<path fill="#747474" d="M8381.4,1811.5H7242.6c-58.2,0-105.8,47.6-105.8,105.8v280.7c0,58.2,47.6,105.8,105.8,105.8h1138.9
				c58.2,0,105.8-47.6,105.8-105.8v-280.7C8487.2,1859.1,8439.6,1811.5,8381.4,1811.5z M8188.5,2057.6c0,29.5-24.1,53.6-53.6,53.6
				h-660c-29.5,0-53.6-24.1-53.6-53.6l0,0c0-29.5,24.1-53.6,53.6-53.6h660C8164.3,2004,8188.5,2028.1,8188.5,2057.6L8188.5,2057.6z"
				/>
		</g>
	</g>
</g>
</svg>
