<?xml version="1.0" encoding="utf-8"?>
<!-- Generator: Adobe Illustrator 18.1.1, SVG Export Plug-In . SVG Version: 6.00 Build 0)  -->
<svg version="1.1" id="Layer_1" xmlns="http://www.w3.org/2000/svg" xmlns:xlink="http://www.w3.org/1999/xlink" x="0px" y="0px"
	 viewBox="3136 0 3000 3000" enable-background="new 3136 0 3000 3000" xml:space="preserve">
<g>
	<g>
		<g>
			<path fill="#747474" d="M5450.2,2088c-162.2,0-293.7,131.5-293.7,293.7c0,162.2,131.5,293.7,293.7,293.7
				c162.2,0,293.7-131.5,293.7-293.7C5743.9,2219.6,5612.4,2088,5450.2,2088z M5450.2,2566.4c-102,0-184.7-82.6-184.7-184.7
				c0-102.1,82.6-184.7,184.7-184.7c102.1,0,184.6,82.7,184.6,184.7S5552.2,2566.4,5450.2,2566.4z"/>
		</g>
	</g>
	<g>
		<path fill="#747474" d="M4564.6,1302.8h-34.1c0,0-41.7-367.3,295.4-420.3h121.2h22.7c0,0,272.7,15.1,306.7,420.3H5216
			c0,0-11.3-56.8-87-56.8s-226.1,0-226.1,0v41.7H4879v-45.5h-249.9C4628.9,1242.2,4564.6,1246,4564.6,1302.8z"/>
		<path fill="#747474" d="M4575.9,1405h-47.1c0,0-2.1,276.5,47.1,325.6c49.2,49.2,147.6,212.1,295.4,231
			c147.6,18.9,287.8-170.4,287.8-170.4s83.3-94.7,83.3-223.4s15.1-162.8,15.1-162.8h-41.7c0,0-11.3,159.1-98.5,159.1
			c-87,0-168.5,17-196.9-60.6v-18.9H4875c0,0-7.6,85.2-85.2,85.2c-77.6,0-138.2,1.9-138.2,1.9S4554.5,1559.1,4575.9,1405z"/>
		<g>
			<g>
				<path fill="#747474" d="M5193.2,2412.1c0-149.1,97.5-275.5,232.1-318.9c-136-119.7-285.1-173.1-285.1-173.1l34.1,246.1
					l-227.2-147.6h-136.3l-215.9,147.6V1920c-579.4,159.1-511.2,696.8-511.2,696.8h1179.2
					C5219.1,2560.1,5193.2,2489.1,5193.2,2412.1z M4902.7,2586.5h-39.8v-522.6h39.8V2586.5z"/>
			</g>
		</g>
		
			<rect x="5581.5" y="2593.2" transform="matrix(-0.7951 -0.6065 0.6065 -0.7951 8843.9854 8335.1113)" fill="#747474" width="497" height="160.7"/>
	</g>
</g>
<path fill="#747474" d="M4507.3,1211.4"/>
<path fill="none" stroke="#747474" stroke-width="190.9966" stroke-miterlimit="10" d="M4611.5,2405.2h-753.8
	c-63,0-114.1-54.2-114.1-120.9V321.4c0-66.8,51.1-120.9,114.1-120.9h1580.5c63,0,114.1,54.2,114.1,120.9v1250.2v602.2"/>
<rect x="3977.3" y="1211.4" fill="#747474" width="417.6" height="147.7"/>
<rect x="3977.4" y="546.8" fill="#747474" width="1059.8" height="147.7"/>
<rect x="3980.7" y="898" fill="#747474" width="520.3" height="147.7"/>
<rect x="3980.7" y="1534.6" fill="#747474" width="365.8" height="147.7"/>
<rect x="3980.7" y="1846.2" fill="#747474" width="264.9" height="147.7"/>
</svg>
