<?xml version="1.0" encoding="utf-8"?>
<!-- Generator: Adobe Illustrator 18.1.1, SVG Export Plug-In . SVG Version: 6.00 Build 0)  -->
<svg version="1.1" id="Layer_1" xmlns="http://www.w3.org/2000/svg" xmlns:xlink="http://www.w3.org/1999/xlink" x="0px" y="0px"
	 viewBox="0 0 3000 3000" enable-background="new 0 0 3000 3000" xml:space="preserve">
<path fill="#747474" d="M1301.9,1148.2"/>
<g>
	<path fill="none" stroke="#FFFFFF" stroke-width="139.4603" stroke-miterlimit="10" d="M635.6,2454.7
		c39.5,32.3,64.6,82.5,64.6,136.4c0,100.5-78.9,179.4-179.4,179.4s-179.4-78.9-179.4-179.4c0-53.8,25.1-104.1,64.6-136.4"/>
	<path fill="none" stroke="#FFFFFF" stroke-width="139.4603" stroke-miterlimit="10" d="M1744.3,2490.6
		c17.9,28.7,32.3,64.6,32.3,100.5c0,100.5-78.9,179.4-179.4,179.4s-179.4-78.9-179.4-179.4c0-32.3,7.2-61,21.5-86.1"/>
	<path fill="none" stroke="#FFFFFF" stroke-width="144.723" stroke-miterlimit="10" d="M291.1,1729.9
		c-14.4-28.7-17.9-57.4-10.8-89.7l96.9-362.4c17.9-71.8,96.9-122,190.2-122h1001.1c93.3,0,172.2,50.2,190.2,122l96.9,362.4
		c7.2,25.1,7.2,46.6,0,71.8"/>
	<path fill="none" stroke="#FFFFFF" stroke-width="144.723" stroke-miterlimit="10" d="M1866.3,2454.7H269.6
		c-82.5,0-147.1-68.2-147.1-147.1v-394.7c0-82.5,68.2-147.1,147.1-147.1h1596.7c82.5,0,147.1,68.2,147.1,147.1v394.7
		C2013.5,2386.5,1948.9,2454.7,1866.3,2454.7z"/>
	<path fill="#FFFFFF" d="M1521.9,2185.6H596.1c-43.1,0-75.4-32.3-75.4-75.4l0,0c0-43.1,32.3-75.4,75.4-75.4h925.8
		c43.1,0,75.4,32.3,75.4,75.4l0,0C1597.2,2149.7,1561.3,2185.6,1521.9,2185.6z"/>
</g>
<rect x="633.7" y="760.9" fill="none" width="1336.4" height="1066.4"/>
<rect x="527.3" y="370.9" fill="none" width="769.1" height="883.6"/>
<g>
	<g>
		<path fill="#FFFFFF" d="M2462.9,1296l55.4-16.8l-103.9-341.8l95-44.5c67-35.2,113.1-76.9,90.3-152.1L2540,278.6
			c-25.8-85-115.7-133-200.7-107.2L1736,354.7c-85,25.8-133,115.8-107.2,200.8l207.6,417.3c22.8,75.1,84.3,84.2,159.6,76.1
			l113.6-17.4l103.5,340.4l55.5-16.9l206.6,679.8l194.2-59L2462.9,1296z M1959.2,649.7l-103.3-135.9l497.3-145.7l13.2,159.5
			L1959.2,649.7z"/>
	</g>
</g>
<path fill="none" stroke="#FFFFFF" stroke-width="95.462" stroke-miterlimit="10" d="M1019.4,1157.9c0,0-134.4-1112.8,803.5-924.2
	l236.9,98.9"/>
</svg>
