<?xml version="1.0" encoding="utf-8"?>
<!-- Generator: Adobe Illustrator 18.1.1, SVG Export Plug-In . SVG Version: 6.00 Build 0)  -->
<svg version="1.1" id="Layer_1" xmlns="http://www.w3.org/2000/svg" xmlns:xlink="http://www.w3.org/1999/xlink" x="0px" y="0px"
	 viewBox="0 0 3000 3000" enable-background="new 0 0 3000 3000" xml:space="preserve">
<g>
	<path fill="none" stroke="#747474" stroke-width="154.9382" stroke-miterlimit="10" d="M751.4,2371.1c38,31.6,62.2,79.2,62.2,132.5
		c0,95.1-77.1,172.2-172.2,172.2s-172.2-77.1-172.2-172.2c0-53.4,24.3-101.1,62.4-132.7"/>
	<path fill="none" stroke="#747474" stroke-width="154.9382" stroke-miterlimit="10" d="M1817.2,2407.3
		c18.6,27.5,29.4,60.6,29.4,96.3c0,95.1-77.1,172.2-172.2,172.2c-95.1,0-172.2-77.1-172.2-172.2c0-30,7.7-58.3,21.2-82.9"/>
	<path fill="none" stroke="#747474" stroke-width="154.9382" stroke-miterlimit="10" d="M419.8,1820.7c-13.1-26.3-17-56.1-8.9-86.4
		l93.2-348.2c18.5-68.9,94.6-118.2,182.7-118.2h961.4c88.1,0,164.3,49.3,182.7,118.2l93.2,348.2c6.2,23.3,5.4,46.2-1.3,67.5"/>
	<g>
		<g>
			<path fill="#747474" d="M1934.2,1783.5H400.8c-78.3,0-142.4,64.1-142.4,142.4v377.9c0,78.3,64.1,142.4,142.4,142.4h1533.4
				c78.3,0,142.4-64.1,142.4-142.4v-377.9C2076.6,1847.6,2012.5,1783.5,1934.2,1783.5z M1674.4,2114.9c0,39.7-32.5,72.2-72.2,72.2
				H713.6c-39.7,0-72.2-32.5-72.2-72.2v0c0-39.7,32.5-72.2,72.2-72.2h888.6C1641.9,2042.8,1674.4,2075.2,1674.4,2114.9
				L1674.4,2114.9z"/>
		</g>
	</g>
</g>
<g>
	<g>
		<path fill="#747474" d="M2397.2,1369.4l55.4-16.8l-103.9-341.8l95-44.5c67-35.2,113.1-76.9,90.3-152.1L2474.3,352
			c-25.8-85-115.7-133-200.7-107.2l-603.2,183.3c-85,25.8-133,115.8-107.2,200.8l207.6,417.3c22.8,75.1,84.3,84.2,159.6,76.1
			l113.6-17.4l103.5,340.4l55.5-16.9l206.6,679.8l194.2-59L2397.2,1369.4z M1893.5,723.1l-103.3-135.9l497.3-145.7l13.2,159.5
			L1893.5,723.1z"/>
	</g>
</g>
<path fill="none" stroke="#747474" stroke-width="95.462" stroke-miterlimit="10" d="M1043,1316.9c0,0-134.4-1112.8,803.5-924.2"/>
</svg>
