<?xml version="1.0" encoding="utf-8"?>
<!-- Generator: Adobe Illustrator 18.1.1, SVG Export Plug-In . SVG Version: 6.00 Build 0)  -->
<svg version="1.1" id="Layer_1" xmlns="http://www.w3.org/2000/svg" xmlns:xlink="http://www.w3.org/1999/xlink" x="0px" y="0px"
	 viewBox="-3261.4 0 3000 3000" enable-background="new -3261.4 0 3000 3000" xml:space="preserve">
<path fill="#747474" d="M-747.1,143.2h-2317c-39.8,0-72.1,36.9-72.1,82.5V2877c0,45.6,32.3,82.5,72.1,82.5h2317
	c39.8,0,72.1-36.9,72.1-82.5V225.7C-674.9,180.2-707.2,143.2-747.1,143.2z M-819.2,308.3v1160.6H-1269c8-25.8,12.4-53.6,12.4-82.5
	s-4.4-56.7-12.4-82.5h84.5c39.8,0,72.1-36.9,72.1-82.5v-165c0-136.5-97-247.5-216.3-247.5h-99.7l-124.3-284.4
	c-12.2-28-37.2-45.6-64.5-45.6H-2194c-27.3,0-52.3,17.7-64.5,45.6l-124.3,284.4h-99.7c-119.3,0-216.3,111-216.3,247.5v165
	c0,45.6,32.3,82.5,72.1,82.5h84.5c-8,25.8-12.4,53.6-12.4,82.5s4.4,56.7,12.4,82.5H-2992V308.3H-819.2z M-2410.3,1386.4
	c0-45.5,32.4-82.5,72.1-82.5c39.8,0,72.1,37,72.1,82.5s-32.4,82.5-72.1,82.5C-2378,1468.9-2410.3,1431.8-2410.3,1386.4z
	 M-1661.7,643.8l72.1,165h-243.9v-165H-1661.7z M-1977.7,808.8h-243.9l72.1-165h171.8V808.8z M-1473.4,973.8c0.2,0,0.3,0,0.5,0
	c0.1,0,0.2,0,0.3,0h143.9c39.8,0,72.1,37,72.1,82.5v82.5h-1297.9v-82.5c0-45.5,32.4-82.5,72.1-82.5H-1473.4z M-2134.3,1302.8h457.4
	c-8,25.8-12.4,54.7-12.4,83.6s4.4,56.7,12.4,82.5h-457.4c8-25.8,12.4-53.6,12.4-82.5S-2126.3,1328.6-2134.3,1302.8z M-1545,1386.4
	c0-45.5,32.4-82.5,72.1-82.5s72.1,37,72.1,82.5s-32.4,82.5-72.1,82.5S-1545,1431.8-1545,1386.4z M-2410.3,2712
	c0-45.5,32.4-82.5,72.1-82.5c39.8,0,72.1,37,72.1,82.5s-32.4,82.5-72.1,82.5C-2378,2794.5-2410.3,2757.5-2410.3,2712z
	 M-1661.7,1969.4l72.1,165h-243.9v-165H-1661.7z M-1977.7,2134.4h-243.9l72.1-165h171.8V2134.4z M-1328.7,2299.5
	c39.8,0,72.1,37,72.1,82.5v82.5h-1297.9V2382c0-45.5,32.4-82.5,72.1-82.5H-1328.7z M-1400.8,2712c0,45.5-32.4,82.5-72.1,82.5
	s-72.1-37-72.1-82.5s32.4-82.5,72.1-82.5S-1400.8,2666.5-1400.8,2712z M-1676.9,2794.5h-457.4c8-25.8,12.4-53.6,12.4-82.5
	s-4.4-57.8-12.4-83.6h457.4c-8,25.8-12.4,54.7-12.4,83.6S-1684.9,2768.7-1676.9,2794.5z M-1269,2794.5c8-25.8,12.4-53.6,12.4-82.5
	s-4.4-56.7-12.4-82.5h84.5c39.8,0,72.1-36.9,72.1-82.5v-165c0-136.5-97-247.5-216.3-247.5h-99.7l-124.3-284.4
	c-12.2-28-37.2-45.6-64.5-45.6H-2194c-27.3,0-52.3,17.7-64.5,45.6l-124.3,284.4h-99.7c-119.3,0-216.3,111-216.3,247.5v165
	c0,45.6,32.3,82.5,72.1,82.5h84.5c-8,25.8-12.4,53.6-12.4,82.5s4.4,56.7,12.4,82.5H-2992V1633.9h2172.8v1160.6H-1269z"/>
</svg>
