<?xml version="1.0" encoding="utf-8"?>
<!-- Generator: Adobe Illustrator 18.1.1, SVG Export Plug-In . SVG Version: 6.00 Build 0)  -->
<svg version="1.1" id="Layer_1" xmlns="http://www.w3.org/2000/svg" xmlns:xlink="http://www.w3.org/1999/xlink" x="0px" y="0px"
	 viewBox="593.2 0 110 110" enable-background="new 593.2 0 110 110" xml:space="preserve">
<g>
	<path fill="none" stroke="#FFFFFF" stroke-width="5.0676" stroke-miterlimit="10" d="M649.9,91.7c1.2,1,2,2.6,2,4.3
		c0,3.1-2.5,5.6-5.6,5.6c-3.1,0-5.6-2.5-5.6-5.6c0-1.7,0.8-3.3,2-4.3"/>
	<path fill="none" stroke="#FFFFFF" stroke-width="5.0676" stroke-miterlimit="10" d="M684.8,92.8c0.6,0.9,1,2,1,3.1
		c0,3.1-2.5,5.6-5.6,5.6c-3.1,0-5.6-2.5-5.6-5.6c0-1,0.3-1.9,0.7-2.7"/>
	<path fill="none" stroke="#FFFFFF" stroke-width="5.0676" stroke-miterlimit="10" d="M639.1,68.9c-0.4-0.9-0.6-1.8-0.3-2.8l3-11.4
		c0.6-2.3,3.1-3.9,6-3.9h31.4c2.9,0,5.4,1.6,6,3.9l3,11.4c0.2,0.8,0.2,1.5,0,2.2"/>
	<path fill="none" stroke="#FFFFFF" stroke-width="5.0676" stroke-miterlimit="10" d="M688.6,91.7h-50.2c-2.6,0-4.7-2.1-4.7-4.7
		V74.6c0-2.6,2.1-4.7,4.7-4.7h50.2c2.6,0,4.7,2.1,4.7,4.7V87C693.2,89.6,691.2,91.7,688.6,91.7z"/>
	<path fill="#FFFFFF" d="M677.7,83.2h-29.1c-1.3,0-2.4-1.1-2.4-2.4v0c0-1.3,1.1-2.4,2.4-2.4h29.1c1.3,0,2.4,1.1,2.4,2.4v0
		C680.1,82.1,679,83.2,677.7,83.2z"/>
</g>
<g>
	<g>
		<path fill="none" stroke="#FFFFFF" stroke-width="4.6617" stroke-miterlimit="10" d="M670.4,44.7c0,0,6.5-21.5-27.4-21.5"/>
		<g>
			<polygon fill="#FFFFFF" points="644.2,31.9 644.2,14.4 635.5,23.2 			"/>
		</g>
	</g>
</g>
<g>
	<g>
		<path fill="#FFFFFF" d="M616,30.3c2.8,0,5.3-1,7.3-3c2-2,3-4.4,3-7.3c0-2.8-1-5.3-3-7.3c-2-2-4.4-3-7.3-3s-5.3,1-7.3,3
			c-2,2-3,4.4-3,7.3c0,2.8,1,5.3,3,7.3C610.8,29.3,613.2,30.3,616,30.3z"/>
		<path fill="#FFFFFF" d="M634.7,41.1c-0.1-0.9-0.2-1.9-0.4-2.9c-0.2-1-0.4-2-0.7-2.9c-0.3-0.9-0.7-1.8-1.1-2.6
			c-0.5-0.8-1-1.6-1.7-2.2c-0.6-0.6-1.4-1.1-2.3-1.4c-0.9-0.4-1.9-0.5-3-0.5c-0.2,0-0.5,0.2-1.1,0.6c-0.6,0.4-1.3,0.8-2,1.3
			c-0.7,0.5-1.7,0.9-2.9,1.3c-1.2,0.4-2.4,0.6-3.6,0.6c-1.2,0-2.4-0.2-3.6-0.6c-1.2-0.4-2.1-0.8-2.9-1.3c-0.7-0.5-1.4-0.9-2-1.3
			c-0.6-0.4-1-0.6-1.1-0.6c-1.1,0-2.1,0.2-3,0.5c-0.9,0.4-1.7,0.8-2.3,1.4c-0.6,0.6-1.2,1.3-1.7,2.2c-0.5,0.8-0.9,1.7-1.1,2.6
			c-0.3,0.9-0.5,1.9-0.7,2.9c-0.2,1-0.3,2-0.4,2.9c-0.1,0.9-0.1,1.8-0.1,2.8c0,2.1,0.7,3.8,2,5.1c1.3,1.2,3,1.9,5.2,1.9h23.4
			c2.2,0,3.9-0.6,5.2-1.9c1.3-1.2,2-2.9,2-5.1C634.8,43,634.8,42,634.7,41.1z"/>
	</g>
</g>
</svg>
