<?xml version="1.0" encoding="utf-8"?>
<!-- Generator: Adobe Illustrator 18.1.1, SVG Export Plug-In . SVG Version: 6.00 Build 0)  -->
<svg version="1.1" id="Layer_1" xmlns="http://www.w3.org/2000/svg" xmlns:xlink="http://www.w3.org/1999/xlink" x="0px" y="0px"
	 viewBox="0 0 3000 3000" enable-background="new 0 0 3000 3000" xml:space="preserve">
<path fill="#747474" d="M1301.9,1148.2"/>
<g>
	<path fill="none" stroke="#FFFFFF" stroke-width="106" stroke-miterlimit="10" d="M1612.8,2509.1c30,24.5,49.1,62.7,49.1,103.6
		c0,76.4-60,136.4-136.4,136.4s-136.4-60-136.4-136.4c0-40.9,19.1-79.1,49.1-103.6"/>
	<path fill="none" stroke="#FFFFFF" stroke-width="106" stroke-miterlimit="10" d="M2455.5,2536.4c13.6,21.8,24.5,49.1,24.5,76.4
		c0,76.4-60,136.4-136.4,136.4s-136.4-60-136.4-136.4c0-24.5,5.5-46.4,16.4-65.5"/>
	<path fill="none" stroke="#FFFFFF" stroke-width="110" stroke-miterlimit="10" d="M1351,1958.2c-10.9-21.8-13.6-43.6-8.2-68.2
		l73.6-275.5c13.6-54.5,73.6-92.7,144.5-92.7h760.9c70.9,0,130.9,38.2,144.5,92.7L2540,1890c5.5,19.1,5.5,35.5,0,54.5"/>
	<path fill="none" stroke="#FFFFFF" stroke-width="110" stroke-miterlimit="10" d="M2548.2,2509.1H1334.6
		c-62.7,0-111.8-51.8-111.8-111.8v-300c0-62.7,51.8-111.8,111.8-111.8h1213.6c62.7,0,111.8,51.8,111.8,111.8v300
		C2660,2457.3,2611,2509.1,2548.2,2509.1z"/>
	<path fill="#FFFFFF" d="M2286.4,2304.5h-703.6c-32.7,0-57.3-24.5-57.3-57.3l0,0c0-32.7,24.5-57.3,57.3-57.3h703.6
		c32.7,0,57.3,24.5,57.3,57.3l0,0C2343.7,2277.3,2316.4,2304.5,2286.4,2304.5z"/>
</g>
<path fill="none" stroke="#FFFFFF" stroke-width="110" stroke-miterlimit="10" d="M1222.8,2345.5H434.6c-65.5,0-120-54.5-120-120
	V289.1c0-65.5,54.5-120,120-120h1652.7c65.5,0,120,54.5,120,120v1232.7"/>
<rect x="633.7" y="760.9" fill="none" width="1336.4" height="1066.4"/>
<rect x="527.3" y="370.9" fill="none" width="769.1" height="883.6"/>
<g>
	<g>
		<polygon fill="#FFFFFF" points="967,1489.6 698.3,1220.9 550.5,1368.6 905.1,1723.2 905.5,1722.8 970.3,1787.6 1971.4,786.5 
			1820.8,635.8 		"/>
	</g>
</g>
<g>
	<g>
		<path fill="#FFFFFF" d="M851.6,706.7c46.4,0,85.9-16.4,118.7-49.2c32.8-32.8,49.2-72.4,49.2-118.7c0-46.3-16.4-85.9-49.2-118.7
			c-32.8-32.8-72.4-49.2-118.7-49.2c-46.3,0-85.9,16.4-118.7,49.2c-32.8,32.8-49.2,72.4-49.2,118.7c0,46.4,16.4,85.9,49.2,118.7
			C765.7,690.3,805.3,706.7,851.6,706.7z"/>
		<path fill="#FFFFFF" d="M1157.9,884c-1-14.7-3.1-30.6-6.1-47.7c-3.1-17.1-6.9-32.9-11.6-47.4c-4.7-14.6-10.9-28.8-18.8-42.6
			c-7.9-13.8-16.9-25.6-27.1-35.4c-10.2-9.8-22.7-17.6-37.4-23.4c-14.7-5.8-31-8.7-48.8-8.7c-2.6,0-8.7,3.1-18.4,9.4
			c-9.6,6.3-20.5,13.3-32.6,21c-12.1,7.7-27.8,14.7-47.2,21c-19.4,6.3-38.8,9.4-58.4,9.4c-19.5,0-39-3.1-58.4-9.4
			c-19.4-6.3-35.1-13.3-47.2-21c-12.1-7.7-23-14.7-32.6-21c-9.6-6.3-15.7-9.4-18.4-9.4c-17.8,0-34,2.9-48.8,8.7
			c-14.7,5.8-27.2,13.6-37.4,23.4c-10.2,9.8-19.2,21.6-27.1,35.4c-7.9,13.8-14.1,28.1-18.8,42.6c-4.7,14.6-8.5,30.4-11.6,47.4
			c-3.1,17.1-5.1,32.9-6.1,47.7c-1,14.7-1.5,29.8-1.5,45.3c0,35,10.6,62.6,31.9,82.9c21.3,20.3,49.6,30.4,84.8,30.4h382.1
			c35.3,0,63.5-10.1,84.8-30.4c21.3-20.3,31.9-47.9,31.9-82.9C1159.5,913.8,1159,898.7,1157.9,884z"/>
	</g>
</g>
</svg>
