<?xml version="1.0" encoding="utf-8"?>
<!-- Generator: Adobe Illustrator 18.1.1, SVG Export Plug-In . SVG Version: 6.00 Build 0)  -->
<svg version="1.1" id="Layer_1" xmlns="http://www.w3.org/2000/svg" xmlns:xlink="http://www.w3.org/1999/xlink" x="0px" y="0px"
	 viewBox="0 0 3000 3000" enable-background="new 0 0 3000 3000" xml:space="preserve">
<g>
	<path fill="none" stroke="#FFFFFF" stroke-width="96.1978" stroke-miterlimit="10" d="M1317.3,2465.7
		c23.6,19.6,38.6,49.2,38.6,82.3c0,59-47.9,106.9-106.9,106.9s-106.9-47.9-106.9-106.9c0-33.1,15.1-62.8,38.8-82.4"/>
	<path fill="none" stroke="#FFFFFF" stroke-width="96.1978" stroke-miterlimit="10" d="M1979,2488.2c11.5,17.1,18.3,37.6,18.3,59.8
		c0,59-47.9,106.9-106.9,106.9c-59,0-106.9-47.9-106.9-106.9c0-18.6,4.8-36.2,13.2-51.4"/>
	<path fill="none" stroke="#FFFFFF" stroke-width="96.1978" stroke-miterlimit="10" d="M1111.4,2034.1c-8.1-16.4-10.6-34.8-5.5-53.6
		l57.9-216.2c11.5-42.8,58.7-73.4,113.4-73.4h596.9c54.7,0,102,30.6,113.4,73.4l57.9,216.2c3.9,14.4,3.3,28.7-0.8,41.9"/>
	<path fill="none" stroke="#FFFFFF" stroke-width="96.1978" stroke-miterlimit="10" d="M2051.7,2465.8h-952.1
		c-48.6,0-88.4-39.8-88.4-88.4v-234.7c0-48.6,39.8-88.4,88.4-88.4h952.1c48.6,0,88.4,39.8,88.4,88.4v234.7
		C2140.1,2426,2100.3,2465.8,2051.7,2465.8z"/>
	<path fill="#FFFFFF" d="M1845.6,2304.8h-551.7c-24.6,0-44.8-20.2-44.8-44.8v0c0-24.6,20.2-44.8,44.8-44.8h551.7
		c24.6,0,44.8,20.2,44.8,44.8v0C1890.4,2284.6,1870.2,2304.8,1845.6,2304.8z"/>
</g>
<g>
	<path fill="none" stroke="#FFFFFF" stroke-width="66.4536" stroke-miterlimit="10" d="M787.5,2385.5c16.3,13.5,26.7,34,26.7,56.8
		c0,40.8-33.1,73.8-73.8,73.8c-40.8,0-73.8-33.1-73.8-73.8c0-22.9,10.4-43.4,26.8-56.9"/>
	<path fill="none" stroke="#FFFFFF" stroke-width="66.4536" stroke-miterlimit="10" d="M645.3,2087.3c-5.6-11.3-7.3-24.1-3.8-37.1
		l40-149.4c7.9-29.6,40.6-50.7,78.4-50.7h382.3"/>
	<path fill="none" stroke="#FFFFFF" stroke-width="66.4536" stroke-miterlimit="10" d="M1011.6,2385.5H637.2
		c-33.6,0-61.1-27.5-61.1-61.1v-162.1c0-33.6,27.5-61.1,61.1-61.1h384.4"/>
	<path fill="#FFFFFF" d="M1019.8,2274.4H766.1c-14.1,0-25.7-11.6-25.7-25.7v-10.5c0-14.1,11.6-25.7,25.7-25.7h253.7
		c14.1,0,25.7,11.6,25.7,25.7v10.5C1045.5,2262.8,1033.9,2274.4,1019.8,2274.4z"/>
</g>
<g>
	<path fill="none" stroke="#FFFFFF" stroke-width="66.4536" stroke-miterlimit="10" d="M2286.3,2388.3c-16.3,13.5-26.7,34-26.7,56.8
		c0,40.8,33.1,73.8,73.8,73.8s73.8-33.1,73.8-73.8c0-22.9-10.4-43.4-26.8-56.9"/>
	<path fill="none" stroke="#FFFFFF" stroke-width="66.4536" stroke-miterlimit="10" d="M2428.5,2090.2c5.6-11.3,7.3-24.1,3.8-37.1
		l-40-149.4c-7.9-29.6-40.6-50.7-78.4-50.7h-316.8"/>
	<path fill="none" stroke="#FFFFFF" stroke-width="66.4536" stroke-miterlimit="10" d="M2140.1,2388.4h296.6
		c33.6,0,61.1-27.5,61.1-61.1v-162.1c0-33.6-27.5-61.1-61.1-61.1h-296.6"/>
	<path fill="#FFFFFF" d="M2159.6,2277.8h154.3c10.7,0,19.5-8.8,19.5-19.5v-17.4c0-10.7-8.8-19.5-19.5-19.5h-154.3
		c-10.7,0-19.5,8.8-19.5,19.5v17.4C2140.1,2269,2148.9,2277.8,2159.6,2277.8z"/>
</g>
<path fill="#FFFFFF" d="M1536.9,126.4L104.8,765.8v2024.2h400.1V1040.9h2087.7v1749.1h376.5V784.7L1536.9,126.4z M1539.2,822
	c-96,0-173.9-77.8-173.9-173.9c0-96,77.8-173.9,173.9-173.9c96,0,173.9,77.8,173.9,173.9C1713.1,744.1,1635.2,822,1539.2,822z"/>
</svg>
